<?xml version="1.0" encoding="UTF-8" standalone="no"?>
<!-- Created with Inkscape (http://www.inkscape.org/) -->
<svg
   width="64"
   height="64"
   viewBox="0 0 16.933333 16.933333"
   version="1.1"
   xmlns="http://www.w3.org/2000/svg"
   xmlns:svg="http://www.w3.org/2000/svg">
    <path
       style="fill:currentColor"
       d="M 8.2821464,16.299418 V 0.63389839 C 8.2759567,0.3881227 8.1128383,0.19740699 7.9104877,0.19323735 5.0864992,0.32039842 2.5228714,1.8783676 1.1096358,4.3257392 c -1.47951341,2.5625158 -1.47951341,5.7197108 0,8.2822258 1.4172278,2.454494 3.9857181,4.005885 6.8006657,4.132114 0.2023079,-0.0026 0.3656725,-0.195015 0.3718449,-0.440661 z" />
    <path
       style="fill:currentColor"
       d="M 10.276159,0.37017512 C 9.2576539,0.40487896 9.5543702,4.6670799 9.5163415,8.3688916 c 0.038324,3.7309994 -0.2633112,8.0314264 0.7841955,7.9990794 1.047516,-0.03237 1.434884,-4.025464 1.910793,-4.025594 0.475909,-1.03e-4 0.239656,2.459751 0.985212,2.420464 0.745557,-0.03937 1.480618,-4.548197 1.856414,-4.549518 0.421351,-0.0019 0.169119,1.036168 0.612054,1.051189 0.407684,0.01295 1.153682,-1.9410059 1.265362,-2.7977245 0.0038,-0.028488 0.0041,-0.1639367 0,-0.1957918 C 16.817356,7.4144584 16.072689,5.4600885 15.66501,5.4736334 15.222082,5.4891724 15.474308,6.5265582 15.052956,6.5244863 14.67716,6.5231655 13.942099,2.0142565 13.196542,1.9749427 12.450986,1.9355772 12.687239,4.3958979 12.21133,4.3957943 11.735421,4.3956648 11.348053,0.40247041 10.300537,0.37017512 c -0.0083,-2.3309e-4 -0.01634,-2.5898e-4 -0.02437,0 z" />
</svg>
