<?xml version="1.0" encoding="UTF-8" standalone="no"?>
<!-- Created with Inkscape (http://www.inkscape.org/) -->
<svg
   width="267.32712"
   height="62.539246"
   viewBox="0 0 70.730299 16.546842"
   version="1.1"
   xmlns="http://www.w3.org/2000/svg"
   xmlns:svg="http://www.w3.org/2000/svg">
  <g
     transform="translate(-7.425e-7,-0.19323735)">
    <path
       style="fill:currentColor"
       d="M 8.2821464,16.299418 V 0.63389839 C 8.2759567,0.3881227 8.1128383,0.19740699 7.9104877,0.19323735 5.0864992,0.32039842 2.5228714,1.8783676 1.1096358,4.3257392 c -1.47951341,2.5625158 -1.47951341,5.7197108 0,8.2822258 1.4172278,2.454494 3.9857181,4.005885 6.8006657,4.132114 0.2023079,-0.0026 0.3656725,-0.195015 0.3718449,-0.440661 z" />
    <path
       style="fill:currentColor"
       d="M 10.276159,0.37017512 C 9.2576539,0.40487896 9.5543702,4.6670799 9.5163415,8.3688916 c 0.038324,3.7309994 -0.2633112,8.0314264 0.7841955,7.9990794 1.047516,-0.03237 1.434884,-4.025464 1.910793,-4.025594 0.475909,-1.03e-4 0.239656,2.459751 0.985212,2.420464 0.745557,-0.03937 1.480618,-4.548197 1.856414,-4.549518 0.421351,-0.0019 0.169119,1.036168 0.612054,1.051189 0.407684,0.01295 1.153682,-1.9410059 1.265362,-2.7977245 0.0038,-0.028488 0.0041,-0.1639367 0,-0.1957918 C 16.817356,7.4144584 16.072689,5.4600885 15.66501,5.4736334 15.222082,5.4891724 15.474308,6.5265582 15.052956,6.5244863 14.67716,6.5231655 13.942099,2.0142565 13.196542,1.9749427 12.450986,1.9355772 12.687239,4.3958979 12.21133,4.3957943 11.735421,4.3956648 11.348053,0.40247041 10.300537,0.37017512 c -0.0083,-2.3309e-4 -0.01634,-2.5898e-4 -0.02437,0 z" />
  </g>
  <g
     aria-label="coalesce"
     style="fill:currentColor"
     transform="translate(-7.425e-7,-0.19323735)">
    <path
       d="m 24.750086,12.274661 c 0.748235,0 1.568879,-0.253435 2.208499,-0.820645 l -0.699961,-1.170625 c -0.374118,0.313776 -0.820645,0.543073 -1.315445,0.543073 -0.977532,0 -1.677494,-0.820644 -1.677494,-2.0998838 0,-1.2671715 0.699962,-2.0998842 1.737835,-2.0998842 0.374118,0 0.687894,0.1568879 1.025806,0.4344588 L 26.874107,5.9388029 C 26.379307,5.4922758 25.739687,5.1785 24.906974,5.1785 c -1.834382,0 -3.451534,1.3033764 -3.451534,3.5480802 0,2.2447038 1.436128,3.5480808 3.294646,3.5480808 z" />
    <path
       d="m 30.699755,12.274661 c 1.689562,0 3.246373,-1.303377 3.246373,-3.5480808 0,-2.2447038 -1.556811,-3.5480802 -3.246373,-3.5480802 -1.70163,0 -3.246373,1.3033764 -3.246373,3.5480802 0,2.2447038 1.544743,3.5480808 3.246373,3.5480808 z m 0,-1.448197 c -0.929259,0 -1.436128,-0.820644 -1.436128,-2.0998838 0,-1.2671715 0.506869,-2.0998842 1.436128,-2.0998842 0.917191,0 1.436128,0.8327127 1.436128,2.0998842 0,1.2792398 -0.518937,2.0998838 -1.436128,2.0998838 z" />
    <path
       d="m 36.914923,12.274661 c 0.78444,0 1.460265,-0.374118 2.039543,-0.893055 h 0.06034 l 0.120683,0.724098 h 1.448196 V 8.1593701 C 40.583685,6.2043055 39.702699,5.1785 37.989,5.1785 c -1.06201,0 -2.027474,0.4103222 -2.811914,0.8930542 l 0.627552,1.1826934 c 0.627551,-0.3741173 1.230966,-0.6516882 1.858518,-0.6516882 0.832713,0 1.122352,0.5068686 1.146489,1.1706251 -2.715368,0.2896392 -3.885993,1.0499421 -3.885993,2.4860695 0,1.158557 0.784439,2.015407 1.991269,2.015407 z m 0.591347,-1.387855 c -0.518937,0 -0.893054,-0.229298 -0.893054,-0.760303 0,-0.6154832 0.543073,-1.0620104 2.196431,-1.2551032 v 1.3516492 c -0.422391,0.422391 -0.796508,0.663757 -1.303377,0.663757 z" />
    <path
       d="m 44.071421,12.274661 c 0.410322,0 0.699961,-0.07241 0.905122,-0.156888 l -0.217229,-1.315445 c -0.120683,0.02414 -0.168957,0.02414 -0.241366,0.02414 -0.168957,0 -0.349981,-0.132751 -0.349981,-0.543073 V 2.4752007 h -1.77404 v 7.7357803 c 0,1.255103 0.434459,2.06368 1.677494,2.06368 z" />
    <path
       d="m 49.140113,12.274661 c 0.832713,0 1.689562,-0.28964 2.353319,-0.748235 l -0.603415,-1.086147 c -0.4948,0.301707 -0.965464,0.458595 -1.508538,0.458595 -1.013737,0 -1.737835,-0.56721 -1.882654,-1.6654252 h 4.163563 c 0.04827,-0.1689562 0.08448,-0.4948003 0.08448,-0.8206444 0,-1.8826548 -0.965464,-3.2343044 -2.823982,-3.2343044 -1.605084,0 -3.149826,1.3637179 -3.149826,3.5480802 0,2.2326358 1.472332,3.5480808 3.367055,3.5480808 z M 47.46262,8.0386871 c 0.144819,-0.9775323 0.772371,-1.4844009 1.484401,-1.4844009 0.880985,0 1.279239,0.5792784 1.279239,1.4844009 z" />
    <path
       d="m 55.138051,12.274661 c 1.749904,0 2.691231,-0.941328 2.691231,-2.13609 0,-1.2430346 -0.989601,-1.70163 -1.882655,-2.0395424 -0.724098,-0.2655026 -1.339581,-0.4465271 -1.339581,-0.9413274 0,-0.3861856 0.289639,-0.6516882 0.905122,-0.6516882 0.494801,0 0.965464,0.241366 1.448196,0.5792784 L 57.756872,6.0112127 C 57.20173,5.5767539 56.441427,5.1785 55.463895,5.1785 c -1.544742,0 -2.522275,0.8568493 -2.522275,2.0636793 0,1.1344202 0.953396,1.6533571 1.810245,1.9792012 0.71203,0.277571 1.411992,0.5068687 1.411992,1.0137375 0,0.42239 -0.301708,0.712029 -0.977533,0.712029 -0.63962,0 -1.20683,-0.27757 -1.810245,-0.736166 l -0.808576,1.122352 c 0.675825,0.555142 1.665426,0.941328 2.570548,0.941328 z" />
    <path
       d="m 62.053198,12.274661 c 0.748235,0 1.568879,-0.253435 2.208499,-0.820645 l -0.699961,-1.170625 c -0.374118,0.313776 -0.820645,0.543073 -1.315445,0.543073 -0.977532,0 -1.677494,-0.820644 -1.677494,-2.0998838 0,-1.2671715 0.699962,-2.0998842 1.737835,-2.0998842 0.374118,0 0.687894,0.1568879 1.025806,0.4344588 L 64.177219,5.9388029 C 63.682419,5.4922758 63.042799,5.1785 62.210086,5.1785 c -1.834382,0 -3.451534,1.3033764 -3.451534,3.5480802 0,2.2447038 1.436128,3.5480808 3.294646,3.5480808 z" />
    <path
       d="m 68.123548,12.274661 c 0.832713,0 1.689562,-0.28964 2.353319,-0.748235 l -0.603415,-1.086147 c -0.494801,0.301707 -0.965464,0.458595 -1.508538,0.458595 -1.013737,0 -1.737835,-0.56721 -1.882655,-1.6654252 h 4.163564 c 0.04827,-0.1689562 0.08448,-0.4948003 0.08448,-0.8206444 0,-1.8826548 -0.965464,-3.2343044 -2.823982,-3.2343044 -1.605084,0 -3.149827,1.3637179 -3.149827,3.5480802 0,2.2326358 1.472333,3.5480808 3.367056,3.5480808 z M 66.446054,8.0386871 c 0.14482,-0.9775323 0.772372,-1.4844009 1.484401,-1.4844009 0.880986,0 1.27924,0.5792784 1.27924,1.4844009 z" />
  </g>
</svg>
