<?xml version="1.0" encoding="UTF-8" standalone="no"?>
<!-- Created with Inkscape (http://www.inkscape.org/) -->
<svg
   width="64"
   height="64"
   viewBox="0 0 16.933333 16.933333"
   version="1.1"
   xmlns="http://www.w3.org/2000/svg"
   xmlns:svg="http://www.w3.org/2000/svg">
  <path
     d="M 8.2936774,15.809878 V 1.123455 C 8.2878745,0.8930403 8.134951,0.71424434 7.9452474,0.71033531 5.2977584,0.8295488 2.8943576,2.2901447 1.5694494,4.5845554 c -1.38704367,2.4023583 -1.38704367,5.3622283 0,7.7645856 1.3286509,2.301088 3.7366103,3.755517 6.3756234,3.873857 0.1896637,-0.0024 0.3428179,-0.182827 0.3486046,-0.41312 z" />
  <path
     d="M 10.163064,0.87621445 C 9.2082156,0.90874929 9.4863871,4.9045622 9.4507352,8.3750103 c 0.035929,3.4978117 -0.2468543,7.5294617 0.7351828,7.4991357 0.982047,-0.03035 1.345204,-3.773872 1.791369,-3.773993 0.446164,-9.7e-5 0.224677,2.306016 0.923636,2.269184 0.698959,-0.03691 1.388079,-4.263934 1.740388,-4.265172 0.395016,-0.0018 0.158549,0.971407 0.5738,0.985489 0.382204,0.01214 1.081577,-1.8196927 1.186277,-2.6228663 0.0036,-0.026707 0.0038,-0.1536906 0,-0.1835547 -0.105952,-0.8030037 -0.804078,-2.6352253 -1.186277,-2.6225269 -0.415245,0.014568 -0.178783,0.9871169 -0.5738,0.9851745 -0.352309,-0.00124 -1.041429,-4.22834 -1.740388,-4.2651967 -0.698959,-0.036905 -0.477472,2.2696453 -0.923636,2.2695481 -0.446165,-1.214e-4 -0.809322,-3.74374072 -1.791369,-3.77401755 -0.0078,-2.1852e-4 -0.01532,-2.428e-4 -0.02285,0 z" />
   <style>
      path {
         fill: #033796;
      }
      @media (prefers-color-scheme:dark) {
         path {
            fill: #f9fafb;
         }
      }
   </style>
</svg>
